<mxfile host="65bd71144e">
    <diagram id="Wz-PIVzJR2O_jStzrL8h" name="Page-1">
        <mxGraphModel dx="966" dy="860" grid="1" gridSize="10" guides="1" tooltips="1" connect="1" arrows="1" fold="1" page="1" pageScale="1" pageWidth="850" pageHeight="1100" math="0" shadow="0">
            <root>
                <mxCell id="0"/>
                <mxCell id="1" parent="0"/>
                <mxCell id="2" value="Student" style="swimlane;" vertex="1" parent="1">
                    <mxGeometry x="325" y="100" width="200" height="200" as="geometry"/>
                </mxCell>
                <mxCell id="3" value="&lt;div style=&quot;text-align: left&quot;&gt;&lt;span style=&quot;font-size: 24px&quot;&gt;-runs&lt;/span&gt;&lt;/div&gt;&lt;font style=&quot;font-size: 24px&quot;&gt;&lt;div style=&quot;text-align: left&quot;&gt;&lt;span&gt;-sites&lt;/span&gt;&lt;/div&gt;&lt;div style=&quot;text-align: left&quot;&gt;&lt;span&gt;-creds&lt;/span&gt;&lt;/div&gt;&lt;/font&gt;" style="text;html=1;align=center;verticalAlign=middle;resizable=0;points=[];autosize=1;strokeColor=none;fillColor=none;" vertex="1" parent="2">
                    <mxGeometry x="60" y="70" width="80" height="50" as="geometry"/>
                </mxCell>
            </root>
        </mxGraphModel>
    </diagram>
</mxfile>
